<?xml version="1.0" encoding="UTF-8"?>
<svg id="Layer_1" data-name="Layer 1" xmlns="http://www.w3.org/2000/svg" xmlns:xlink="http://www.w3.org/1999/xlink" viewBox="0 0 100 100">
  <defs>
    <style>
      .cls-1 {
        fill: url(#linear-gradient);
      }
    </style>
    <linearGradient id="linear-gradient" x1="78.69" y1="-1.23" x2="46.26" y2="51.37" gradientUnits="userSpaceOnUse">
      <stop offset="0" stop-color="#d22027"/>
      <stop offset=".53" stop-color="#931a1d"/>
      <stop offset="1" stop-color="#ec1c24"/>
    </linearGradient>
  </defs>
  <path class="cls-1" d="M5,82.05c2.43-.87,2.54-2.9,2.54-4.84,.04-18.32,.05-36.64-.01-54.95,0-1.29,.03-4.23-.63-4.62,5.25-.16,12.37,.61,15.89,5.6,5.75,8.16,9.14,17.48,13.23,26.47,3.89,8.56,7.89,17.08,11.94,25.57,.61,1.27,1.72,2.3,3.04,4,.16-1.34,.28-1.92,.28-2.49,.01-17.92-.01-35.85,.03-53.77,0-2.37-.99-3.85-3.22-4.95,.62-.06,1.24-.17,1.87-.18,7.82-.01,15.64-.23,23.45,.09,3.54,.15,7.15,1.04,10.52,2.18,7.07,2.4,8.58,10.4,7.94,15.25-.65,4.93-3.29,8.36-7.42,10.85-.37,.22-.66,.56-1.21,1.03,3.63,1.53,6.75,3.31,8.88,6.53,4.89,7.41,3.4,19.33-3.21,24.2-4.23,3.11-9.15,3.92-14.26,3.99-7.65,.1-15.3,.07-22.94,.36-4.84,.18-8.26-2.06-11.1-5.56-5.8-7.16-9.35-15.56-13.05-23.88-3.95-8.89-7.82-17.81-11.86-26.65-.93-2.05-2.29-3.94-3.69-5.72-.69-.88-1.59-1.92-3.35-2.13-.08,1.25-.05,1.77-.05,2.35,0,18.87,0,37.74-.02,56.61,0,2.04,.55,3.62,2.6,4.66H5Zm54.11-.66c4.96,0,9.61-.11,14.26,.03,4.61,.14,7.75-2.09,10.14-5.71,4-6.05,4.21-12.57,2.01-19.23-2.21-6.69-5.56-10.92-13.95-10.23-3.21,.27-6.47,.04-9.7,.04-.91,0-1.82,0-2.76,0v35.09Zm0-62.53v26.51c5,0,9.81,0,14.61,0,3.6,0,6.44-1.47,8.17-4.66,3.2-5.9,2.98-11.92-.54-17.48-1.22-1.93-3.78-3.93-5.92-4.17-5.36-.59-10.82-.2-16.32-.2Z"/>
</svg>